<svg xmlns="http://www.w3.org/2000/svg" version="1.1" xmlns:xlink="http://www.w3.org/1999/xlink" xmlns:svgjs="http://svgjs.dev/svgjs" width="1000" height="1000" viewBox="0 0 1000 1000"><rect width="1000" height="1000" fill="#000000"></rect><g transform="matrix(0.7,0,0,0.7,150,281.25)"><svg viewBox="0 0 512 320" data-background-color="#641ae6" preserveAspectRatio="xMidYMid meet" height="625" width="1000" xmlns="http://www.w3.org/2000/svg" xmlns:xlink="http://www.w3.org/1999/xlink"><g id="tight-bounds" transform="matrix(1,0,0,1,0,0)"><svg viewBox="0 0 512 320" height="320" width="512"><g><svg></svg></g><g><svg viewBox="0 0 512 320" height="320" width="512"><g><path xmlns="http://www.w3.org/2000/svg" d="M96 160c0-88.366 71.634-160 160-160 88.366 0 160 71.634 160 160 0 88.366-71.634 160-160 160-88.366 0-160-71.634-160-160z" fill="#ffffff" fill-rule="nonzero" stroke="none" stroke-width="1" stroke-linecap="butt" stroke-linejoin="miter" stroke-miterlimit="10" stroke-dasharray="" stroke-dashoffset="0" font-family="none" font-weight="none" font-size="none" text-anchor="none" style="mix-blend-mode: normal" data-fill-palette-color="tertiary"></path></g><g transform="matrix(1,0,0,1,153.6,114.59290810666326)"><svg viewBox="0 0 204.8 90.81418378667348" height="90.81418378667348" width="204.8"><g><svg viewBox="0 0 204.8 90.81418378667348" height="90.81418378667348" width="204.8"><g><svg viewBox="0 0 204.80000000000004 90.8141837866735" height="90.81418378667348" width="204.8"><g transform="matrix(1,0,0,1,0,54.705611646923906)"><svg viewBox="0 0 204.80000000000004 36.10857213974959" height="36.10857213974959" width="204.80000000000004"><g id="textblocktransform"><svg viewBox="0 0 204.80000000000004 36.10857213974959" height="36.10857213974959" width="204.80000000000004" id="textblock"><g><svg viewBox="0 0 204.80000000000004 20.34753617390145" height="20.34753617390145" width="204.80000000000004"><g transform="matrix(1,0,0,1,0,0)"><svg width="204.80000000000004" viewBox="-0.7799999713897705 -35.790000915527344 366.1099853515625 36.380001068115234" height="20.34753617390145" data-palette-color="#641ae6"><path d="M22.51-34.96L32.03-2.1 19.92-0.54 18.46-6.05 12.89-6.05 11.67-0.54-0.78-1.76 8.94-34.28 22.51-34.96ZM13.92-13.53L17.58-13.53 15.72-22.02 13.92-13.53ZM57.57-12.5L57.57-12.5Q57.57-9.16 56.41-6.73 55.25-4.3 53.23-2.72 51.22-1.15 48.52-0.4 45.82 0.34 42.72 0.34L42.72 0.34Q41.53 0.34 40.1 0.02 38.67-0.29 37.2-0.77 35.74-1.25 34.38-1.79 33.03-2.34 31.98-2.83L31.98-2.83 33.05-12.4Q35.13-11.16 37.66-10.51 40.18-9.86 42.62-9.86L42.62-9.86Q43.09-9.86 43.75-9.9 44.41-9.94 45-10.12 45.6-10.3 46.02-10.67 46.43-11.04 46.43-11.72L46.43-11.72Q46.43-12.18 46.14-12.51 45.85-12.84 45.38-13.05 44.92-13.26 44.33-13.37 43.75-13.48 43.19-13.53 42.62-13.57 42.14-13.57 41.65-13.57 41.35-13.57L41.35-13.57Q39.26-13.57 37.53-14.23 35.81-14.89 34.58-16.1 33.35-17.31 32.66-19.03 31.98-20.75 31.98-22.85L31.98-22.85Q31.98-25.73 33.14-28.02 34.3-30.3 36.24-31.9 38.18-33.5 40.7-34.35 43.21-35.21 45.9-35.21L45.9-35.21Q47.09-35.21 48.36-35.12 49.63-35.03 50.89-34.81 52.15-34.59 53.34-34.25 54.54-33.91 55.61-33.4L55.61-33.4 54.69-23.49Q53.02-24.05 51.21-24.43 49.39-24.8 47.65-24.8L47.65-24.8Q47.34-24.8 46.84-24.79 46.34-24.78 45.79-24.72 45.24-24.66 44.68-24.54 44.11-24.41 43.67-24.21 43.23-24 42.97-23.66 42.7-23.32 42.72-22.85L42.72-22.85Q42.75-22.31 43.12-22.02 43.5-21.73 44.1-21.59 44.7-21.46 45.42-21.46 46.14-21.46 46.85-21.5 47.56-21.53 48.17-21.57 48.78-21.61 49.17-21.58L49.17-21.58Q51.12-21.46 52.68-20.75 54.25-20.04 55.33-18.87 56.42-17.7 56.99-16.08 57.57-14.45 57.57-12.5ZM57.78-34.38L84.39-34.42 84.15-24.07 76.87-23.78 76-1.12 65.69-0.59 64.77-23.24 57.49-22.85 57.78-34.38ZM114.4-23.54L114.4-23.54Q114.4-21.63 114.07-20.08 113.74-18.53 113.03-17.24 112.32-15.94 111.2-14.84 110.08-13.75 108.49-12.74L108.49-12.74 114.3-2.39 103.31-0.24 99.55-10.64 96.53-10.55 96.09-0.39 85.59-0.39Q85.71-5.96 85.82-11.47 85.93-16.99 86.08-22.56L86.08-22.56Q86.13-25.37 86.17-28.13 86.22-30.88 86.37-33.69L86.37-33.69Q88.08-34.33 89.74-34.74 91.4-35.16 93.07-35.39 94.74-35.62 96.46-35.71 98.19-35.79 99.99-35.79L99.99-35.79Q102.78-35.79 105.38-35.02 107.98-34.25 109.98-32.71 111.98-31.18 113.19-28.88 114.4-26.59 114.4-23.54ZM103.46-22.75L103.46-22.75Q103.46-23.78 103.18-24.63 102.9-25.49 102.35-26.11 101.8-26.73 100.98-27.09 100.16-27.44 99.06-27.44L99.06-27.44Q98.58-27.44 98.11-27.38 97.65-27.32 97.21-27.2L97.21-27.2 96.82-18.12 97.4-18.12Q98.45-18.12 99.54-18.38 100.63-18.65 101.49-19.21 102.36-19.78 102.91-20.65 103.46-21.53 103.46-22.75ZM146.25-18.7L146.25-18.7Q146.25-16.48 145.74-14.42 145.23-12.35 144.26-10.55 143.3-8.74 141.92-7.24 140.54-5.74 138.82-4.66 137.1-3.59 135.07-2.99 133.05-2.39 130.78-2.39L130.78-2.39Q128.58-2.39 126.59-2.95 124.6-3.52 122.87-4.53 121.13-5.54 119.73-6.97 118.32-8.4 117.34-10.14 116.35-11.89 115.8-13.89 115.25-15.89 115.25-18.07L115.25-18.07Q115.25-20.19 115.76-22.23 116.27-24.27 117.24-26.07 118.2-27.88 119.57-29.39 120.94-30.91 122.63-32.01 124.33-33.11 126.31-33.72 128.29-34.33 130.48-34.33L130.48-34.33Q134.02-34.33 136.94-33.23 139.86-32.13 141.92-30.09 143.98-28.05 145.12-25.16 146.25-22.27 146.25-18.7ZM135.41-18.07L135.41-18.07Q135.41-19.12 135.11-20.1 134.8-21.09 134.22-21.86 133.63-22.63 132.77-23.11 131.9-23.58 130.78-23.58L130.78-23.58Q129.63-23.58 128.73-23.17 127.82-22.75 127.18-22.03 126.53-21.31 126.19-20.35 125.84-19.38 125.84-18.31L125.84-18.31Q125.84-17.29 126.14-16.26 126.43-15.23 127.02-14.4 127.6-13.57 128.47-13.06 129.34-12.55 130.48-12.55L130.48-12.55Q131.63-12.55 132.55-13 133.46-13.45 134.1-14.22 134.73-14.99 135.07-15.99 135.41-16.99 135.41-18.07ZM176.4-23.49L176.4-23.49Q176.4-21.12 175.7-19.29 174.99-17.46 173.75-16.09 172.52-14.72 170.86-13.77 169.2-12.82 167.31-12.22 165.42-11.62 163.39-11.34 161.36-11.06 159.41-11.04L159.41-11.04 159.41 0.34 148.03 0.34Q148.03-5.25 148.06-10.79 148.08-16.33 148.13-21.97L148.13-21.97Q148.18-24.95 148.16-27.93 148.13-30.91 148.28-33.94L148.28-33.94Q151.4-34.86 154.53-35.33 157.65-35.79 160.97-35.79L160.97-35.79Q162.85-35.79 164.73-35.49 166.61-35.18 168.33-34.52 170.06-33.86 171.53-32.87 173.01-31.88 174.08-30.52 175.16-29.15 175.78-27.4 176.4-25.66 176.4-23.49ZM165.56-22.66L165.56-22.66Q165.56-24.24 164.6-25.13 163.63-26.03 162.1-26.03L162.1-26.03Q161.58-26.03 161.03-25.94 160.49-25.85 160-25.73L160-25.73 159.7-18.6Q160.05-18.55 160.36-18.55 160.68-18.55 161.02-18.55L161.02-18.55Q161.9-18.55 162.72-18.85 163.54-19.14 164.17-19.69 164.81-20.24 165.19-20.98 165.56-21.73 165.56-22.66ZM196.42-34.96L205.94-2.1 193.83-0.54 192.37-6.05 186.8-6.05 185.58-0.54 173.13-1.76 182.85-34.28 196.42-34.96ZM187.83-13.53L191.49-13.53 189.63-22.02 187.83-13.53ZM249.13-16.55L249.13-16.55Q249.13-13.06 248.91-9.59 248.69-6.13 248.4-2.64L248.4-2.64 235.85-2.05Q236.41-6.3 236.86-10.56 237.31-14.82 237.31-19.09L237.31-19.09Q237.31-19.36 237.29-20.03 237.26-20.7 237.2-21.56 237.14-22.41 237.03-23.33 236.92-24.24 236.74-25.01 236.55-25.78 236.29-26.27 236.02-26.76 235.65-26.76L235.65-26.76Q234.8-26.76 234.31-26.11 233.82-25.46 233.59-24.56 233.36-23.66 233.31-22.72 233.26-21.78 233.26-21.19L233.26-21.19Q233.26-20.17 233.31-19.14 233.36-18.12 233.36-17.04L233.36-17.04Q233.36-13.26 233.17-9.5 232.99-5.74 232.72-1.95L232.72-1.95 221.15-1.51Q221.71-5.76 222.14-10 222.57-14.23 222.57-18.51L222.57-18.51Q222.57-18.77 222.54-19.48 222.52-20.19 222.46-21.07 222.39-21.95 222.27-22.9 222.15-23.85 221.97-24.65 221.78-25.44 221.52-25.95 221.25-26.46 220.86-26.46L220.86-26.46Q220.25-26.46 219.83-25.99 219.42-25.51 219.16-24.76 218.9-24 218.77-23.08 218.63-22.17 218.57-21.29 218.51-20.41 218.5-19.67 218.49-18.92 218.46-18.55L218.46-18.55 217.93-0.73 205.62-0.73Q206.01-4.86 206.42-9.01 206.82-13.16 207.12-17.3 207.43-21.44 207.62-25.59 207.82-29.74 207.82-33.89L207.82-33.89 219.44-34.38 219.39-31.54Q219.93-32.23 220.61-32.92 221.3-33.62 222.07-34.17 222.83-34.72 223.7-35.06 224.57-35.4 225.5-35.4L225.5-35.4Q226.69-35.4 227.64-35.22 228.6-35.03 229.36-34.59 230.13-34.16 230.72-33.39 231.31-32.62 231.75-31.45L231.75-31.45Q232.53-32.3 233.32-33.03 234.11-33.76 234.99-34.29 235.87-34.81 236.9-35.11 237.92-35.4 239.17-35.4L239.17-35.4Q241.54-35.4 243.2-34.48 244.86-33.57 245.97-32.06 247.08-30.54 247.7-28.59 248.32-26.64 248.64-24.54 248.96-22.44 249.04-20.36 249.13-18.29 249.13-16.55ZM279.79-22.51L279.79-22.51Q279.79-20.14 279.08-18.31 278.37-16.48 277.14-15.1 275.91-13.72 274.25-12.78 272.59-11.84 270.7-11.24 268.8-10.64 266.78-10.36 264.75-10.08 262.8-10.06L262.8-10.06 262.8 0.34 251.42 0.34Q251.42-2.44 251.43-5.08 251.44-7.71 251.46-10.31 251.47-12.92 251.48-15.55 251.49-18.19 251.52-21L251.52-21Q251.57-23.97 251.54-26.95 251.52-29.93 251.66-32.96L251.66-32.96Q254.79-33.89 257.91-34.35 261.04-34.81 264.36-34.81L264.36-34.81Q266.24-34.81 268.12-34.51 270-34.2 271.72-33.54 273.44-32.89 274.92-31.9 276.4-30.91 277.47-29.54 278.54-28.17 279.17-26.42 279.79-24.66 279.79-22.51ZM268.95-21.68L268.95-21.68Q268.95-23.27 267.99-24.16 267.02-25.05 265.48-25.05L265.48-25.05Q264.97-25.05 264.42-24.96 263.87-24.88 263.38-24.76L263.38-24.76 263.09-17.63Q263.43-17.58 263.75-17.58 264.07-17.58 264.41-17.58L264.41-17.58Q265.29-17.58 266.11-17.87 266.92-18.16 267.56-18.71 268.19-19.26 268.57-20.01 268.95-20.75 268.95-21.68ZM308.42-19.73L308.42-19.73Q308.42-17.6 308.13-15.48L308.13-15.48Q303.96-15.21 299.83-14.61 295.71-14.01 291.58-13.43L291.58-13.43Q292.21-11.67 293.57-10.62 294.92-9.57 296.8-9.57L296.8-9.57Q297.78-9.57 298.94-9.94 300.1-10.3 301.25-10.85 302.39-11.4 303.44-12.04 304.49-12.67 305.25-13.18L305.25-13.18 304.08-2.1Q303.13-1.37 302.02-0.85 300.91-0.34 299.71-0.02 298.51 0.29 297.29 0.44 296.07 0.59 294.9 0.59L294.9 0.59Q292.48 0.59 290.48-0.07 288.48-0.73 286.85-1.92 285.23-3.1 284.01-4.71 282.79-6.32 281.98-8.23 281.18-10.13 280.76-12.26 280.35-14.38 280.35-16.55L280.35-16.55Q280.35-18.82 280.76-21.09 281.18-23.36 282.02-25.46 282.86-27.56 284.14-29.36 285.43-31.15 287.14-32.5 288.84-33.84 291.01-34.59 293.17-35.35 295.78-35.35L295.78-35.35Q297.95-35.35 299.75-34.75 301.54-34.16 302.94-33.09 304.35-32.03 305.39-30.57 306.42-29.1 307.09-27.36 307.77-25.61 308.1-23.67 308.42-21.73 308.42-19.73ZM298.66-20.46L298.66-21Q298.66-21.68 298.51-22.4 298.37-23.12 298.04-23.71 297.71-24.29 297.17-24.67 296.63-25.05 295.83-25.05L295.83-25.05Q294.85-25.05 294.11-24.52 293.36-24 292.82-23.21 292.29-22.41 291.95-21.48 291.6-20.56 291.43-19.78L291.43-19.78 298.66-20.46ZM338.62-23.54L338.62-23.54Q338.62-21.63 338.29-20.08 337.96-18.53 337.26-17.24 336.55-15.94 335.42-14.84 334.3-13.75 332.71-12.74L332.71-12.74 338.52-2.39 327.54-0.24 323.78-10.64 320.75-10.55 320.31-0.39 309.81-0.39Q309.94-5.96 310.05-11.47 310.16-16.99 310.3-22.56L310.3-22.56Q310.35-25.37 310.4-28.13 310.45-30.88 310.6-33.69L310.6-33.69Q312.3-34.33 313.96-34.74 315.62-35.16 317.3-35.39 318.97-35.62 320.69-35.71 322.41-35.79 324.22-35.79L324.22-35.79Q327-35.79 329.6-35.02 332.2-34.25 334.2-32.71 336.21-31.18 337.41-28.88 338.62-26.59 338.62-23.54ZM327.68-22.75L327.68-22.75Q327.68-23.78 327.4-24.63 327.12-25.49 326.57-26.11 326.02-26.73 325.21-27.09 324.39-27.44 323.29-27.44L323.29-27.44Q322.8-27.44 322.34-27.38 321.87-27.32 321.43-27.2L321.43-27.2 321.04-18.12 321.63-18.12Q322.68-18.12 323.77-18.38 324.85-18.65 325.72-19.21 326.59-19.78 327.14-20.65 327.68-21.53 327.68-22.75ZM365.33-12.5L365.33-12.5Q365.33-9.16 364.17-6.73 363.01-4.3 361-2.72 358.98-1.15 356.28-0.4 353.59 0.34 350.49 0.34L350.49 0.34Q349.29 0.34 347.86 0.02 346.43-0.29 344.97-0.77 343.5-1.25 342.15-1.79 340.79-2.34 339.74-2.83L339.74-2.83 340.82-12.4Q342.89-11.16 345.42-10.51 347.95-9.86 350.39-9.86L350.39-9.86Q350.85-9.86 351.51-9.9 352.17-9.94 352.77-10.12 353.37-10.3 353.78-10.67 354.2-11.04 354.2-11.72L354.2-11.72Q354.2-12.18 353.9-12.51 353.61-12.84 353.15-13.05 352.68-13.26 352.1-13.37 351.51-13.48 350.95-13.53 350.39-13.57 349.9-13.57 349.41-13.57 349.12-13.57L349.12-13.57Q347.02-13.57 345.3-14.23 343.58-14.89 342.34-16.1 341.11-17.31 340.43-19.03 339.74-20.75 339.74-22.85L339.74-22.85Q339.74-25.73 340.9-28.02 342.06-30.3 344-31.9 345.94-33.5 348.46-34.35 350.97-35.21 353.66-35.21L353.66-35.21Q354.86-35.21 356.12-35.12 357.39-35.03 358.65-34.81 359.91-34.59 361.11-34.25 362.3-33.91 363.38-33.4L363.38-33.4 362.45-23.49Q360.79-24.05 358.97-24.43 357.15-24.8 355.42-24.8L355.42-24.8Q355.1-24.8 354.6-24.79 354.1-24.78 353.55-24.72 353-24.66 352.44-24.54 351.88-24.41 351.44-24.21 351-24 350.73-23.66 350.46-23.32 350.49-22.85L350.49-22.85Q350.51-22.31 350.89-22.02 351.27-21.73 351.86-21.59 352.46-21.46 353.18-21.46 353.9-21.46 354.61-21.5 355.32-21.53 355.93-21.57 356.54-21.61 356.93-21.58L356.93-21.58Q358.88-21.46 360.45-20.75 362.01-20.04 363.1-18.87 364.18-17.7 364.76-16.08 365.33-14.45 365.33-12.5Z" opacity="1" transform="matrix(1,0,0,1,0,0)" fill="#000000" class="wordmark-text-0" data-fill-palette-color="quaternary" id="text-0"></path></svg></g></svg></g><g transform="matrix(1,0,0,1,0,25.151101123691408)"><svg viewBox="0 0 204.80000000000004 10.957471016058182" height="10.957471016058182" width="204.80000000000004"><g transform="matrix(1,0,0,1,0,0)"><svg width="204.80000000000004" viewBox="1.9000000953674316 -36.150001525878906 694.3099975585938 37.150001525878906" height="10.957471016058182" data-palette-color="#641ae6"><path d="M18.5 1Q14.2 1 10.48 0.05 6.75-0.9 5.23-1.85 3.7-2.8 3.2-3.2L3.2-3.2Q1.9-4.25 1.9-6.1L1.9-6.1Q1.9-7.55 2.25-8.85L2.25-8.85Q2.9-11.3 4.6-11.3L4.6-11.3Q5.15-11.25 8.13-10.15 11.1-9.05 12.8-9.05L12.8-9.05Q15.35-9.05 15.35-11.05L15.35-11.05Q15.35-12.25 14.1-13.28 12.85-14.3 11.08-15.25 9.3-16.2 7.5-17.43 5.7-18.65 4.45-20.83 3.2-23 3.2-25.9L3.2-25.9Q3.2-30.7 7.9-33.43 12.6-36.15 20.05-36.15 27.5-36.15 31.88-34.63 36.25-33.1 36.25-30.4L36.25-30.4Q36.25-28.45 35.35-26.98 34.45-25.5 33.45-25.5L33.45-25.5Q33.1-25.5 31.13-26.28 29.15-27.05 27.55-27.05L27.55-27.05Q24.4-27.05 24.4-24.6L24.4-24.6Q24.4-23.4 25.9-22.4 27.4-21.4 29.53-20.48 31.65-19.55 33.8-18.4 35.95-17.25 37.45-15.25 38.95-13.25 38.95-10.4 38.95-7.55 37.13-5.2 35.3-2.85 32.3-1.55L32.3-1.55Q26.35 1 18.5 1L18.5 1ZM71.9-3.05L71.9-3.05Q71.85-1.95 70.95-1.03 70.05-0.1 68.55 0L68.55 0Q65.7 0.2 61.7 0.2 57.7 0.2 54.35 0L54.35 0Q52.85-0.1 51.95-1.03 51.05-1.95 51-3.05L51-3.05Q50.85-10.65 50.85-16.03 50.85-21.4 50.9-23.9L50.9-23.9Q50.9-25.8 49.2-25.8L49.2-25.8 44.7-25.8Q43.65-25.8 43-26.3 42.35-26.8 42.27-28.05 42.2-29.3 42.2-30.65 42.2-32 42.27-32.98 42.35-33.95 43.07-34.48 43.8-35 44.65-35L44.65-35Q51.15-35.1 62.25-35.1 73.35-35.1 78.15-35L78.15-35Q79-34.95 79.72-34.45 80.45-33.95 80.52-32.98 80.6-32 80.6-30.7 80.6-29.4 80.55-28.2L80.55-28.2Q80.4-25.95 78.1-25.95L78.1-25.95 73.6-25.95Q71.9-25.95 71.9-24.2L71.9-24.2Q72.05-17.9 72.05-12.8 72.05-7.7 71.9-3.05ZM117.45-32.65L117.45-32.65 133.8-5Q134.8-3.35 134.8-2.23 134.8-1.1 133.9-0.55 133 0 131.8 0L131.8 0 115.7 0Q113.25 0 112.55-0.9L112.55-0.9Q112.35-1.2 112-1.95L112-1.95 110.55-5.05Q109.9-6.5 107.5-6.7L107.5-6.7 98.05-6.7Q97-6.7 96.45-6.5 95.9-6.3 95.55-5.6L95.55-5.6 93.6-1.55Q93.1-0.65 92.5-0.33 91.9 0 90.75 0L90.75 0 86.25 0Q84.3 0 84.15-1.4L84.15-1.4Q84.1-1.6 84.1-1.8L84.1-1.8Q84.1-2.95 84.85-4L84.85-4 100.5-31.6Q102.75-35.5 107.8-35.5L107.8-35.5 111.8-35.5Q115.8-35.5 117.45-32.65ZM101.25-19.85L101.25-19.85 98.95-15.3Q98.75-14.85 98.75-14.5L98.75-14.5Q98.75-13.2 100-13.2L100-13.2 104.55-13.2Q105.6-13.2 106-13.73 106.4-14.25 106.4-14.65 106.4-15.05 106.25-15.45L106.25-15.45 104.35-19.75Q103.75-21.05 102.8-21.05 101.85-21.05 101.25-19.85ZM160.14-24.55L160.14-24.55 160.24-15.3Q160.24-14.35 161.29-14.35L161.29-14.35Q164.39-14.35 166.17-16.07 167.94-17.8 167.94-20.15 167.94-22.5 166.27-24.2 164.59-25.9 161.34-25.9L161.34-25.9Q160.14-25.9 160.14-24.55ZM173.24-9.6L173.24-9.6Q174.19-8.6 179.99-2.05L179.99-2.05Q180.34-1.6 180.34-1.25L180.34-1.25Q180.34 0.05 179.19 0.05L179.19 0.05Q176.54 0.1 173.87 0.1 171.19 0.1 168.54 0.05L168.54 0.05Q167.09 0.05 165.89-1.1L165.89-1.1 161.59-7.6Q161.34-7.9 160.99-8L160.99-8Q160.19-8.3 160.19-7.35L160.19-7.35 160.19-2.25Q160.19-0.1 157.37 0.05 154.54 0.2 151.19 0.2 147.84 0.2 143.09-0.05L143.09-0.05Q141.64-0.15 140.77-1.05 139.89-1.95 139.74-3.1L139.74-3.1Q139.34-7.5 139.34-16.93 139.34-26.35 139.64-30.65 139.94-34.95 143.99-35L143.99-35Q147.79-35.05 154.34-35.05 160.89-35.05 165.19-34.95L165.19-34.95Q171.39-34.85 175.34-30.35 179.29-25.85 179.29-20.2L179.29-20.2Q179.29-16.9 177.77-14.1 176.24-11.3 173.24-9.6ZM213.74-3.05L213.74-3.05Q213.69-1.95 212.79-1.03 211.89-0.1 210.39 0L210.39 0Q207.54 0.2 203.54 0.2 199.54 0.2 196.19 0L196.19 0Q194.69-0.1 193.79-1.03 192.89-1.95 192.84-3.05L192.84-3.05Q192.69-10.65 192.69-16.03 192.69-21.4 192.74-23.9L192.74-23.9Q192.74-25.8 191.04-25.8L191.04-25.8 186.54-25.8Q185.49-25.8 184.84-26.3 184.19-26.8 184.12-28.05 184.04-29.3 184.04-30.65 184.04-32 184.12-32.98 184.19-33.95 184.92-34.48 185.64-35 186.49-35L186.49-35Q192.99-35.1 204.09-35.1 215.19-35.1 219.99-35L219.99-35Q220.84-34.95 221.57-34.45 222.29-33.95 222.37-32.98 222.44-32 222.44-30.7 222.44-29.4 222.39-28.2L222.39-28.2Q222.24-25.95 219.94-25.95L219.94-25.95 215.44-25.95Q213.74-25.95 213.74-24.2L213.74-24.2Q213.89-17.9 213.89-12.8 213.89-7.7 213.74-3.05ZM230.89 0Q229.49 0 228.51-0.93 227.54-1.85 227.26-3.98 226.99-6.1 226.99-16.73 226.99-27.35 227.34-30.6L227.34-30.6Q227.74-34.8 230.89-34.9L230.89-34.9Q234.49-35 260.74-35L260.74-35Q263.69-35 263.69-31.25L263.69-31.25Q263.69-28.3 261.09-28.3L261.09-28.3 250.09-28.3Q249.04-28.3 248.41-27.6 247.79-26.9 247.79-25.8L247.79-25.8 247.79-22.2Q247.79-20.7 249.14-20.7L249.14-20.7 258.24-20.7Q259.04-20.7 259.46-20.55 259.89-20.4 260.24-19.68 260.59-18.95 260.59-17.3 260.59-15.65 260.01-15.1 259.44-14.55 258.14-14.55L258.14-14.55 249.99-14.55Q248.74-14.55 248.26-13.93 247.79-13.3 247.79-12L247.79-12 247.79-9.55Q247.79-7.4 249.84-7.4L249.84-7.4 262.29-7.4Q263.19-7.4 263.89-6.88 264.59-6.35 264.59-4.58 264.59-2.8 263.74-1.4 262.89 0 261.74 0L261.74 0 230.89 0ZM289.99-24.55L289.99-24.55 290.09-15.3Q290.09-14.35 291.14-14.35L291.14-14.35Q294.24-14.35 296.01-16.07 297.79-17.8 297.79-20.15 297.79-22.5 296.11-24.2 294.44-25.9 291.19-25.9L291.19-25.9Q289.99-25.9 289.99-24.55ZM303.09-9.6L303.09-9.6Q304.04-8.6 309.84-2.05L309.84-2.05Q310.19-1.6 310.19-1.25L310.19-1.25Q310.19 0.05 309.04 0.05L309.04 0.05Q306.39 0.1 303.71 0.1 301.04 0.1 298.39 0.05L298.39 0.05Q296.94 0.05 295.74-1.1L295.74-1.1 291.44-7.6Q291.19-7.9 290.84-8L290.84-8Q290.04-8.3 290.04-7.35L290.04-7.35 290.04-2.25Q290.04-0.1 287.21 0.05 284.39 0.2 281.04 0.2 277.69 0.2 272.94-0.05L272.94-0.05Q271.49-0.15 270.61-1.05 269.74-1.95 269.59-3.1L269.59-3.1Q269.19-7.5 269.19-16.93 269.19-26.35 269.49-30.65 269.79-34.95 273.84-35L273.84-35Q277.64-35.05 284.19-35.05 290.74-35.05 295.04-34.95L295.04-34.95Q301.24-34.85 305.19-30.35 309.14-25.85 309.14-20.2L309.14-20.2Q309.14-16.9 307.61-14.1 306.09-11.3 303.09-9.6ZM363.58-3.05L363.58-3.05Q363.53-1.95 362.63-1.03 361.73-0.1 360.23 0L360.23 0Q357.38 0.2 353.38 0.2 349.38 0.2 346.03 0L346.03 0Q344.53-0.1 343.63-1.03 342.73-1.95 342.68-3.05L342.68-3.05Q342.53-10.65 342.53-16.03 342.53-21.4 342.58-23.9L342.58-23.9Q342.58-25.8 340.88-25.8L340.88-25.8 336.38-25.8Q335.33-25.8 334.68-26.3 334.03-26.8 333.96-28.05 333.88-29.3 333.88-30.65 333.88-32 333.96-32.98 334.03-33.95 334.76-34.48 335.48-35 336.33-35L336.33-35Q342.83-35.1 353.93-35.1 365.03-35.1 369.83-35L369.83-35Q370.68-34.95 371.41-34.45 372.13-33.95 372.21-32.98 372.28-32 372.28-30.7 372.28-29.4 372.23-28.2L372.23-28.2Q372.08-25.95 369.78-25.95L369.78-25.95 365.28-25.95Q363.58-25.95 363.58-24.2L363.58-24.2Q363.73-17.9 363.73-12.8 363.73-7.7 363.58-3.05ZM380.73 0Q379.33 0 378.35-0.93 377.38-1.85 377.1-3.98 376.83-6.1 376.83-16.73 376.83-27.35 377.18-30.6L377.18-30.6Q377.58-34.8 380.73-34.9L380.73-34.9Q384.33-35 410.58-35L410.58-35Q413.53-35 413.53-31.25L413.53-31.25Q413.53-28.3 410.93-28.3L410.93-28.3 399.93-28.3Q398.88-28.3 398.25-27.6 397.63-26.9 397.63-25.8L397.63-25.8 397.63-22.2Q397.63-20.7 398.98-20.7L398.98-20.7 408.08-20.7Q408.88-20.7 409.3-20.55 409.73-20.4 410.08-19.68 410.43-18.95 410.43-17.3 410.43-15.65 409.85-15.1 409.28-14.55 407.98-14.55L407.98-14.55 399.83-14.55Q398.58-14.55 398.1-13.93 397.63-13.3 397.63-12L397.63-12 397.63-9.55Q397.63-7.4 399.68-7.4L399.68-7.4 412.13-7.4Q413.03-7.4 413.73-6.88 414.43-6.35 414.43-4.58 414.43-2.8 413.58-1.4 412.73 0 411.58 0L411.58 0 380.73 0ZM436.73-32.4Q438.58-30.1 440.98-26.48 443.38-22.85 444.33-21.65 445.28-20.45 445.85-20.45 446.43-20.45 446.88-21.1 447.33-21.75 450.18-26.1 453.03-30.45 454.88-32.73 456.73-35 457.83-35.05 458.93-35.1 460.68-35.1 462.43-35.1 464.78-35 467.13-34.9 467.9-33.77 468.68-32.65 468.83-30.6L468.83-30.6Q469.13-25.35 469.13-16.68 469.13-8 468.68-3L468.68-3Q468.58-1.8 467.78-0.85 466.98 0.1 465.58 0.1L465.58 0.1Q462.53 0.15 458.8 0.15 455.08 0.15 452.88 0L452.88 0Q452.08-0.05 451.45-0.63 450.83-1.2 450.78-2.15L450.78-2.15 450.48-10.4Q450.43-11.6 449.95-11.75 449.48-11.9 449.08-11.1L449.08-11.1Q446.43-6.4 442.48-0.6L442.48-0.6Q441.53 0.85 439.98 0.85 438.43 0.85 437.43-0.6L437.43-0.6Q435.68-3.1 431.48-11.2L431.48-11.2Q431.23-11.7 430.9-11.8 430.58-11.9 430.33-11.55 430.08-11.2 430.08-10.4L430.08-10.4 429.83-2.15Q429.78-1.2 428.98-0.63 428.18-0.05 427.13 0L427.13 0 422.18 0Q420.83-0.05 420-0.95 419.18-1.85 419.03-3L419.03-3Q418.63-7.45 418.63-16.82 418.63-26.2 418.88-30.6L418.88-30.6Q419.03-32.7 419.83-33.85 420.63-35 422.68-35L422.68-35Q433.18-35 434.03-34.85 434.88-34.7 436.73-32.4ZM495.77-6.45L495.77-6.45 495.77-2.25Q495.77-0.1 492.85 0.05 489.92 0.2 486.5 0.2 483.07 0.2 478.67-0.05L478.67-0.05Q477.22-0.15 476.35-1.05 475.47-1.95 475.32-3.1L475.32-3.1Q474.92-7.5 474.92-16.93 474.92-26.35 475.22-30.65 475.52-34.95 479.57-35L479.57-35Q484.22-35.1 489.52-35.1 494.82-35.1 501-34.95 507.17-34.8 511.07-30.3 514.97-25.8 514.97-20.4 514.97-15 511.52-11.5 508.07-8 501.42-8L501.42-8 497.52-8Q496.87-8 496.32-7.55 495.77-7.1 495.77-6.45ZM495.72-24.55L495.72-24.55 495.82-15.3Q495.82-14.35 496.87-14.35L496.87-14.35Q499.97-14.35 501.75-16.07 503.52-17.8 503.52-20.15 503.52-22.5 501.85-24.2 500.17-25.9 496.92-25.9L496.92-25.9Q495.72-25.9 495.72-24.55ZM540.67-22.95L540.67-22.95 540.62-12.95Q540.62-10.75 541.3-9.68 541.97-8.6 544.12-8.6L544.12-8.6 556.77-8.6Q559.07-8.55 559.07-5.1L559.07-5.1Q559.07-2.45 558.42-1.25 557.77-0.05 555.77 0L555.77 0Q548.72 0.2 541.82 0.2 534.92 0.2 524.22 0.1L524.22 0.1Q522.42 0.1 521.3-0.78 520.17-1.65 520.02-3.2L520.02-3.2Q519.62-7.55 519.62-16.93 519.62-26.3 519.85-29.58 520.07-32.85 520.77-33.93 521.47-35 523.52-35L523.52-35 536.92-35Q539.02-35 539.7-33.9 540.37-32.8 540.52-30.35 540.67-27.9 540.67-22.95ZM594.82-32.65L594.82-32.65 611.17-5Q612.17-3.35 612.17-2.23 612.17-1.1 611.27-0.55 610.37 0 609.17 0L609.17 0 593.07 0Q590.62 0 589.92-0.9L589.92-0.9Q589.72-1.2 589.37-1.95L589.37-1.95 587.92-5.05Q587.27-6.5 584.87-6.7L584.87-6.7 575.42-6.7Q574.37-6.7 573.82-6.5 573.27-6.3 572.92-5.6L572.92-5.6 570.97-1.55Q570.47-0.65 569.87-0.33 569.27 0 568.12 0L568.12 0 563.62 0Q561.67 0 561.52-1.4L561.52-1.4Q561.47-1.6 561.47-1.8L561.47-1.8Q561.47-2.95 562.22-4L562.22-4 577.87-31.6Q580.12-35.5 585.17-35.5L585.17-35.5 589.17-35.5Q593.17-35.5 594.82-32.65ZM578.62-19.85L578.62-19.85 576.32-15.3Q576.12-14.85 576.12-14.5L576.12-14.5Q576.12-13.2 577.37-13.2L577.37-13.2 581.92-13.2Q582.97-13.2 583.37-13.73 583.77-14.25 583.77-14.65 583.77-15.05 583.62-15.45L583.62-15.45 581.72-19.75Q581.12-21.05 580.17-21.05 579.22-21.05 578.62-19.85ZM645.37-3.05L645.37-3.05Q645.31-1.95 644.41-1.03 643.51-0.1 642.01 0L642.01 0Q639.16 0.2 635.16 0.2 631.16 0.2 627.81 0L627.81 0Q626.31-0.1 625.41-1.03 624.51-1.95 624.46-3.05L624.46-3.05Q624.31-10.65 624.31-16.03 624.31-21.4 624.37-23.9L624.37-23.9Q624.37-25.8 622.66-25.8L622.66-25.8 618.16-25.8Q617.12-25.8 616.46-26.3 615.81-26.8 615.74-28.05 615.66-29.3 615.66-30.65 615.66-32 615.74-32.98 615.81-33.95 616.54-34.48 617.26-35 618.12-35L618.12-35Q624.62-35.1 635.71-35.1 646.81-35.1 651.62-35L651.62-35Q652.46-34.95 653.19-34.45 653.91-33.95 653.99-32.98 654.06-32 654.06-30.7 654.06-29.4 654.01-28.2L654.01-28.2Q653.87-25.95 651.56-25.95L651.56-25.95 647.06-25.95Q645.37-25.95 645.37-24.2L645.37-24.2Q645.51-17.9 645.51-12.8 645.51-7.7 645.37-3.05ZM662.51 0Q661.11 0 660.14-0.93 659.16-1.85 658.89-3.98 658.61-6.1 658.61-16.73 658.61-27.35 658.96-30.6L658.96-30.6Q659.36-34.8 662.51-34.9L662.51-34.9Q666.11-35 692.36-35L692.36-35Q695.31-35 695.31-31.25L695.31-31.25Q695.31-28.3 692.71-28.3L692.71-28.3 681.71-28.3Q680.66-28.3 680.04-27.6 679.41-26.9 679.41-25.8L679.41-25.8 679.41-22.2Q679.41-20.7 680.76-20.7L680.76-20.7 689.86-20.7Q690.66-20.7 691.09-20.55 691.51-20.4 691.86-19.68 692.21-18.95 692.21-17.3 692.21-15.65 691.64-15.1 691.06-14.55 689.76-14.55L689.76-14.55 681.61-14.55Q680.36-14.55 679.89-13.93 679.41-13.3 679.41-12L679.41-12 679.41-9.55Q679.41-7.4 681.46-7.4L681.46-7.4 693.91-7.4Q694.81-7.4 695.51-6.88 696.21-6.35 696.21-4.58 696.21-2.8 695.36-1.4 694.51 0 693.36 0L693.36 0 662.51 0Z" opacity="1" transform="matrix(1,0,0,1,0,0)" fill="#000000" class="slogan-text-1" data-fill-palette-color="quaternary" id="text-1"></path></svg></g></svg></g></svg></g></svg></g><g transform="matrix(1,0,0,1,70.97548195461913,0)"><svg viewBox="0 0 62.84903609076179 49.90204669713395" height="49.90204669713395" width="62.84903609076179"><g><svg xmlns="http://www.w3.org/2000/svg" xmlns:xlink="http://www.w3.org/1999/xlink" version="1.1" x="0" y="0" viewBox="25.822999954223633 30.804000854492188 48.35399627685547 38.39300537109375" enable-background="new 0 0 100 100" xml:space="preserve" height="49.90204669713395" width="62.84903609076179" class="icon-icon-0" data-fill-palette-color="quaternary" id="icon-0"><path d="M72.677 30.804H27.323c-0.828 0-1.5 0.672-1.5 1.5v8.655 0.001 9.46c0 8.364 5.969 11.74 8.535 12.804 1.646 0.682 3.555 1.12 5.215 1.12 0.393 0 0.768-0.031 1.127-0.084 0.873 2.854 3.531 4.937 6.666 4.937h5.268c3.137 0 5.795-2.081 6.668-4.936 0.359 0.052 0.732 0.083 1.127 0.083 1.66 0 3.568-0.438 5.215-1.12 2.564-1.063 8.533-4.439 8.533-12.804v-9.46-0.001-8.655C74.177 31.476 73.505 30.804 72.677 30.804zM34.397 59.926c-2.42-1.297-5.277-3.861-5.547-8.75 1.012-0.485 2.943-0.491 5.02 0.37 1.873 0.775 6.105 3.251 6.486 9.736C39.278 61.464 36.896 61.268 34.397 59.926zM40.394 52.864c-1.377-1.778-3.189-3.185-5.375-4.09-2.193-0.909-4.41-1.146-6.195-0.742v-5.573h11.57V52.864zM56.606 62.223c0 2.191-1.781 3.974-3.973 3.974h-5.268c-2.18 0-3.955-1.768-3.969-3.946 0-0.03-0.002-0.059-0.004-0.088V42.459h13.213V62.223zM65.604 59.926c-2.516 1.35-4.914 1.539-5.961 1.371 0.375-6.496 4.613-8.975 6.486-9.751 2.078-0.861 4.008-0.855 5.021-0.37C70.88 56.064 68.024 58.629 65.604 59.926zM71.177 48.031c-1.785-0.399-4.002-0.166-6.195 0.743-2.186 0.905-3.996 2.312-5.375 4.09V42.459h11.57V48.031zM71.177 39.459H28.823v-5.655h42.354V39.459zM44.804 38.131h10.395c0.828 0 1.5-0.672 1.5-1.5s-0.672-1.5-1.5-1.5H44.804c-0.828 0-1.5 0.672-1.5 1.5S43.976 38.131 44.804 38.131z" fill="#000000" data-fill-palette-color="quaternary"></path></svg></g></svg></g><g></g></svg></g></svg></g></svg></g></svg></g><defs></defs></svg><rect width="512" height="320" fill="none" stroke="none" visibility="hidden"></rect></g></svg></g></svg>