<svg xmlns="http://www.w3.org/2000/svg" version="1.1" xmlns:xlink="http://www.w3.org/1999/xlink" xmlns:svgjs="http://svgjs.dev/svgjs" width="128" height="128" viewBox="0 0 128 128"><g transform="matrix(0.8046875,0,0,0.8046875,12.5,12.5)"><svg viewBox="0 0 200 200" data-background-color="#641ae6" preserveAspectRatio="xMidYMid meet" height="128" width="128" xmlns="http://www.w3.org/2000/svg" xmlns:xlink="http://www.w3.org/1999/xlink"><g id="tight-bounds" transform="matrix(1,0,0,1,0,0)"><svg viewBox="0 0 200 200" height="200" width="200"><g><svg></svg></g><g><svg viewBox="0 0 200 200" height="200" width="200"><g><path transform="translate(100,100) scale(100,100)" d="M-1 0c0-0.552 0.448-1 1-1 0.552 0 1 0.448 1 1 0 0.552-0.448 1-1 1-0.552 0-1-0.448-1-1z" fill="#1d232a" fill-rule="nonzero" stroke="none" stroke-width="1" stroke-linecap="butt" stroke-linejoin="miter" stroke-miterlimit="10" stroke-dasharray="" stroke-dashoffset="0" font-family="none" font-weight="none" font-size="none" text-anchor="none" style="mix-blend-mode: normal" data-fill-palette-color="tertiary"></path></g><g transform="matrix(1,0,0,1,84.72304,87.87011777143567)"><svg viewBox="0 0 30.553919999999998 24.259764457128664" height="24.259764457128664" width="30.553919999999998"><g><svg viewBox="0 0 30.553919999999998 24.259764457128664" height="24.259764457128664" width="30.553919999999998"><g><svg viewBox="0 0 30.553919999999998 24.259764457128664" height="24.259764457128664" width="30.553919999999998"><g id="textblocktransform"><svg viewBox="0 0 30.553919999999998 24.259764457128664" height="24.259764457128664" width="30.553919999999998" id="textblock"><g><svg viewBox="0 0 30.553919999999998 24.259764457128664" height="24.259764457128664" width="30.553919999999998"><g><svg viewBox="0 0 30.553919999999998 24.259764457128664" height="24.259764457128664" width="30.553919999999998"><g><svg xmlns="http://www.w3.org/2000/svg" xmlns:xlink="http://www.w3.org/1999/xlink" version="1.1" x="0" y="0" viewBox="25.823 30.804 48.35400000000002 38.393" enable-background="new 0 0 100 100" xml:space="preserve" height="24.259764457128664" width="30.553919999999998" class="icon-icon-0" data-fill-palette-color="quaternary" id="icon-0"><path d="M72.677 30.804H27.323c-0.828 0-1.5 0.672-1.5 1.5v8.655 0.001 9.46c0 8.364 5.969 11.74 8.535 12.804 1.646 0.682 3.555 1.12 5.215 1.12 0.393 0 0.768-0.031 1.127-0.084 0.873 2.854 3.531 4.937 6.666 4.937h5.268c3.137 0 5.795-2.081 6.668-4.936 0.359 0.052 0.732 0.083 1.127 0.083 1.66 0 3.568-0.438 5.215-1.12 2.564-1.063 8.533-4.439 8.533-12.804v-9.46-0.001-8.655C74.177 31.476 73.505 30.804 72.677 30.804zM34.397 59.926c-2.42-1.297-5.277-3.861-5.547-8.75 1.012-0.485 2.943-0.491 5.02 0.37 1.873 0.775 6.105 3.251 6.486 9.736C39.278 61.464 36.896 61.268 34.397 59.926zM40.394 52.864c-1.377-1.778-3.189-3.185-5.375-4.09-2.193-0.909-4.41-1.146-6.195-0.742v-5.573h11.57V52.864zM56.606 62.223c0 2.191-1.781 3.974-3.973 3.974h-5.268c-2.18 0-3.955-1.768-3.969-3.946 0-0.03-0.002-0.059-0.004-0.088V42.459h13.213V62.223zM65.604 59.926c-2.516 1.35-4.914 1.539-5.961 1.371 0.375-6.496 4.613-8.975 6.486-9.751 2.078-0.861 4.008-0.855 5.021-0.37C70.88 56.064 68.024 58.629 65.604 59.926zM71.177 48.031c-1.785-0.399-4.002-0.166-6.195 0.743-2.186 0.905-3.996 2.312-5.375 4.09V42.459h11.57V48.031zM71.177 39.459H28.823v-5.655h42.354V39.459zM44.804 38.131h10.395c0.828 0 1.5-0.672 1.5-1.5s-0.672-1.5-1.5-1.5H44.804c-0.828 0-1.5 0.672-1.5 1.5S43.976 38.131 44.804 38.131z" fill="#641ae6" data-fill-palette-color="quaternary"></path></svg></g></svg></g></svg></g></svg></g></svg></g><g></g></svg></g></svg></g></svg></g><defs></defs></svg><rect width="200" height="200" fill="none" stroke="none" visibility="hidden"></rect></g></svg></g></svg>